<mxfile host="www.draw.io" modified="2019-12-08T00:52:34.237Z" agent="Mozilla/5.0 (Windows NT 10.0; Win64; x64) AppleWebKit/537.36 (KHTML, like Gecko) Chrome/78.0.3904.108 Safari/537.36" etag="QcY6hXroXgPeVJTQ2i8o" version="12.3.8" type="github" pages="1">
  <diagram id="sGeUtyzYQ7qXRvpQS59k" name="Page-1">
    <mxGraphModel dx="1038" dy="548" grid="1" gridSize="10" guides="1" tooltips="1" connect="1" arrows="1" fold="1" page="1" pageScale="1" pageWidth="827" pageHeight="1169" math="0" shadow="0">
      <root>
        <mxCell id="0"/>
        <mxCell id="1" parent="0"/>
        <mxCell id="My7hwSWqkHu8Yfp5Hv0d-1" value="&lt;pre style=&quot;background-color: rgb(255 , 255 , 255) ; font-size: 7.2pt&quot;&gt;ClientWorker&lt;/pre&gt;" style="html=1;" vertex="1" parent="1">
          <mxGeometry x="300" y="100" width="110" height="50" as="geometry"/>
        </mxCell>
        <mxCell id="My7hwSWqkHu8Yfp5Hv0d-9" style="edgeStyle=orthogonalEdgeStyle;rounded=0;orthogonalLoop=1;jettySize=auto;html=1;exitX=0.5;exitY=1;exitDx=0;exitDy=0;" edge="1" parent="1" source="My7hwSWqkHu8Yfp5Hv0d-2" target="My7hwSWqkHu8Yfp5Hv0d-3">
          <mxGeometry relative="1" as="geometry"/>
        </mxCell>
        <mxCell id="My7hwSWqkHu8Yfp5Hv0d-2" value="&lt;pre style=&quot;background-color: rgb(255 , 255 , 255) ; font-size: 7.2pt&quot;&gt;LongPollingRunnable&lt;/pre&gt;" style="html=1;" vertex="1" parent="1">
          <mxGeometry x="540" y="100" width="110" height="50" as="geometry"/>
        </mxCell>
        <mxCell id="My7hwSWqkHu8Yfp5Hv0d-3" value="&lt;pre style=&quot;background-color: rgb(255 , 255 , 255) ; font-size: 7.2pt&quot;&gt;CacheData&lt;/pre&gt;" style="html=1;" vertex="1" parent="1">
          <mxGeometry x="540" y="200" width="110" height="50" as="geometry"/>
        </mxCell>
        <mxCell id="My7hwSWqkHu8Yfp5Hv0d-10" style="edgeStyle=orthogonalEdgeStyle;rounded=0;orthogonalLoop=1;jettySize=auto;html=1;exitX=0.5;exitY=1;exitDx=0;exitDy=0;" edge="1" parent="1" source="My7hwSWqkHu8Yfp5Hv0d-4" target="My7hwSWqkHu8Yfp5Hv0d-5">
          <mxGeometry relative="1" as="geometry"/>
        </mxCell>
        <mxCell id="My7hwSWqkHu8Yfp5Hv0d-12" style="edgeStyle=orthogonalEdgeStyle;rounded=0;orthogonalLoop=1;jettySize=auto;html=1;exitX=0.75;exitY=1;exitDx=0;exitDy=0;entryX=0.5;entryY=0;entryDx=0;entryDy=0;" edge="1" parent="1" source="My7hwSWqkHu8Yfp5Hv0d-4" target="My7hwSWqkHu8Yfp5Hv0d-11">
          <mxGeometry relative="1" as="geometry"/>
        </mxCell>
        <mxCell id="My7hwSWqkHu8Yfp5Hv0d-4" value="&lt;pre style=&quot;background-color: rgb(255 , 255 , 255) ; font-size: 7.2pt&quot;&gt;NacosPropertySourceBuilder&lt;/pre&gt;" style="html=1;" vertex="1" parent="1">
          <mxGeometry x="430" y="300" width="240" height="50" as="geometry"/>
        </mxCell>
        <mxCell id="My7hwSWqkHu8Yfp5Hv0d-5" value="&lt;pre style=&quot;background-color: rgb(255 , 255 , 255) ; font-size: 7.2pt&quot;&gt;ConfigService&lt;/pre&gt;" style="html=1;" vertex="1" parent="1">
          <mxGeometry x="495" y="400" width="110" height="50" as="geometry"/>
        </mxCell>
        <mxCell id="My7hwSWqkHu8Yfp5Hv0d-6" value="" style="endArrow=open;startArrow=circlePlus;endFill=0;startFill=0;endSize=8;html=1;exitX=1;exitY=0.5;exitDx=0;exitDy=0;entryX=0;entryY=0.5;entryDx=0;entryDy=0;" edge="1" parent="1" source="My7hwSWqkHu8Yfp5Hv0d-1" target="My7hwSWqkHu8Yfp5Hv0d-2">
          <mxGeometry width="160" relative="1" as="geometry">
            <mxPoint x="370" y="120" as="sourcePoint"/>
            <mxPoint x="530" y="120" as="targetPoint"/>
          </mxGeometry>
        </mxCell>
        <mxCell id="My7hwSWqkHu8Yfp5Hv0d-11" value="&lt;pre style=&quot;background-color: rgb(255 , 255 , 255) ; font-size: 7.2pt&quot;&gt;NacosPropertySource&lt;/pre&gt;" style="html=1;" vertex="1" parent="1">
          <mxGeometry x="630" y="400" width="110" height="50" as="geometry"/>
        </mxCell>
        <mxCell id="My7hwSWqkHu8Yfp5Hv0d-13" value="&lt;pre style=&quot;background-color: rgb(255 , 255 , 255) ; font-size: 7.2pt&quot;&gt;CompositePropertySource&lt;/pre&gt;" style="html=1;" vertex="1" parent="1">
          <mxGeometry x="800" y="300" width="110" height="50" as="geometry"/>
        </mxCell>
        <mxCell id="My7hwSWqkHu8Yfp5Hv0d-16" style="edgeStyle=orthogonalEdgeStyle;rounded=0;orthogonalLoop=1;jettySize=auto;html=1;entryX=0;entryY=0.5;entryDx=0;entryDy=0;" edge="1" parent="1" source="My7hwSWqkHu8Yfp5Hv0d-14" target="My7hwSWqkHu8Yfp5Hv0d-4">
          <mxGeometry relative="1" as="geometry"/>
        </mxCell>
        <mxCell id="My7hwSWqkHu8Yfp5Hv0d-14" value="&lt;pre style=&quot;background-color: rgb(255 , 255 , 255) ; font-size: 7.2pt&quot;&gt;NacosPropertySourceLocator&lt;/pre&gt;" style="html=1;" vertex="1" parent="1">
          <mxGeometry x="280" y="200" width="170" height="50" as="geometry"/>
        </mxCell>
        <mxCell id="My7hwSWqkHu8Yfp5Hv0d-15" value="&lt;pre style=&quot;background-color: rgb(255 , 255 , 255) ; font-size: 7.2pt&quot;&gt;NacosContextRefresher&lt;/pre&gt;" style="html=1;" vertex="1" parent="1">
          <mxGeometry x="745" y="200" width="110" height="50" as="geometry"/>
        </mxCell>
        <mxCell id="My7hwSWqkHu8Yfp5Hv0d-18" style="edgeStyle=orthogonalEdgeStyle;rounded=0;orthogonalLoop=1;jettySize=auto;html=1;entryX=0;entryY=0.5;entryDx=0;entryDy=0;" edge="1" parent="1" source="My7hwSWqkHu8Yfp5Hv0d-17" target="My7hwSWqkHu8Yfp5Hv0d-14">
          <mxGeometry relative="1" as="geometry"/>
        </mxCell>
        <mxCell id="My7hwSWqkHu8Yfp5Hv0d-17" value="&lt;pre style=&quot;background-color: rgb(255 , 255 , 255) ; font-size: 7.2pt&quot;&gt;PropertySourceBootstrapConfiguration&lt;/pre&gt;" style="html=1;" vertex="1" parent="1">
          <mxGeometry x="50" y="310" width="230" height="50" as="geometry"/>
        </mxCell>
        <mxCell id="My7hwSWqkHu8Yfp5Hv0d-20" style="edgeStyle=orthogonalEdgeStyle;rounded=0;orthogonalLoop=1;jettySize=auto;html=1;exitX=0.5;exitY=0;exitDx=0;exitDy=0;entryX=0.5;entryY=1;entryDx=0;entryDy=0;" edge="1" parent="1" source="My7hwSWqkHu8Yfp5Hv0d-19" target="My7hwSWqkHu8Yfp5Hv0d-17">
          <mxGeometry relative="1" as="geometry"/>
        </mxCell>
        <mxCell id="My7hwSWqkHu8Yfp5Hv0d-19" value="&lt;pre style=&quot;background-color: rgb(255 , 255 , 255) ; font-size: 7.2pt&quot;&gt;SpringApplication&lt;/pre&gt;" style="html=1;" vertex="1" parent="1">
          <mxGeometry x="110" y="425" width="110" height="50" as="geometry"/>
        </mxCell>
      </root>
    </mxGraphModel>
  </diagram>
</mxfile>
